<svg xmlns="http://www.w3.org/2000/svg" width="1358.978" height="1398.111" viewBox="0 0 359.563 369.917"><defs><pattern id="a" width="30.066" height="5.181" patternUnits="userSpaceOnUse"><path d="M7.597.061C5.079-.187 2.656.302-.01 1.788v1.273c2.783-1.63 5.183-2.009 7.482-1.781 2.298.228 4.497 1.081 6.781 1.938 4.567 1.713 9.551 3.458 15.813-.157l-.004-1.273c-6.44 3.709-10.816 1.982-15.371.273-2.278-.854-4.576-1.75-7.094-2z" style="fill:#000;stroke:none"/></pattern></defs><g style="display:inline"><path d="M-51.252-180.04s192.524-37.453 290.429-32.854c0 0 6.57 162.956-26.94 249.033 0 0-128.13 32.197-199.095 30.883 0 0-56.51-116.303-64.394-247.062z" style="fill:#241c1c;stroke:#000;stroke-width:.264583px;stroke-linecap:butt;stroke-linejoin:miter;stroke-opacity:1" transform="translate(77.899 302.723)"/><path d="M236.549-151.128s49.28-7.228 44.681 20.37c-4.6 27.597-15.77 47.966-46.653 51.908 0 0 1.972-49.28 1.972-72.278zM-38.768-121.56s-49.938 9.856-36.796 46.653c13.141 36.796 48.624 26.94 48.624 26.94z" style="fill:#000;stroke:#000;stroke-width:.264583px;stroke-linecap:butt;stroke-linejoin:miter;stroke-opacity:1" transform="translate(77.899 302.723)"/><path d="M-34.69-62.324c-57.032-17.051-6.47-42.422-6.47-42.422z" style="fill:none;stroke:#000;stroke-width:.264583px;stroke-linecap:butt;stroke-linejoin:miter;stroke-opacity:1" transform="translate(77.899 302.723)"/><path d="M238.107-141.87s63.518 2.7-1.57 45.562zM-41.16-104.746s-49.386 24.548 6.47 42.422z" style="fill:#fff;stroke:#000;stroke-width:.264583px;stroke-linecap:butt;stroke-linejoin:miter;stroke-opacity:1" transform="translate(77.899 302.723)"/></g><g style="display:inline"><path d="M-39.425-171.498S99.22-201.066 225.378-202.38c0 0 15.113 103.82-24.969 228.664 0 0-72.936 24.97-181.354 30.226 0 0-47.31-84.106-58.48-228.007z" style="fill:#fff;stroke:#000;stroke-width:.264583px;stroke-linecap:butt;stroke-linejoin:miter;stroke-opacity:1" transform="translate(77.899 302.723)"/></g><g style="display:inline"><path d="M54.477-197.776S19.9-270.126 96.229-297.952c76.327-27.827 23.485 77.915 7.828 92.137-15.657 14.223-15.005 3.71-14.352 3.092.652-.619 50.232-61.219 9.133-75.441-41.1-14.223-36.533 76.06-14.352 76.06 22.18 0-30.01 4.328-30.01 4.328z" style="display:inline;fill:#000;stroke:#000;stroke-width:.25575px;stroke-linecap:butt;stroke-linejoin:miter;stroke-opacity:1" transform="translate(77.899 302.723)"/><path d="m85.721-201.99-17.893 1.01s-14.64-65.65 11.929-75.246c0 0-28.196 52.52 5.964 74.235z" style="fill:#999;stroke:#000;stroke-width:.261641px;stroke-linecap:butt;stroke-linejoin:miter;stroke-opacity:1" transform="translate(77.899 302.723)"/></g><g style="display:inline"><path d="m.657-23.655 39.64 53.505 143.028-15.394 21.027-62.423Z" style="fill:#000;fill-opacity:1;stroke:#000;stroke-width:10;stroke-linecap:butt;stroke-linejoin:miter;stroke-miterlimit:4;stroke-dasharray:none;stroke-opacity:1" transform="translate(77.899 302.723)"/></g><g style="display:inline"><path d="m44.98-19.05 21.695-2.646 3.704 10.054-19.05 2.646zM67.204-21.696 88.9-24.342l3.704 10.054-19.05 2.646zM89.958-24.342l21.696-2.645 3.704 10.054-19.05 2.646zM112.183-26.987l21.696-2.646 3.704 10.054-19.05 2.646zM134.938-29.633l21.695-2.646 3.705 10.054-19.05 2.646zM59.288-1.587l21.696-2.646 3.704 10.054-19.05 2.646zM82.042-4.233l21.696-2.646 3.704 10.055-19.05 2.645z" style="fill:#fff;fill-opacity:1;stroke:#000;stroke-width:.264583px;stroke-linecap:butt;stroke-linejoin:miter;stroke-opacity:1" transform="translate(77.899 302.723)"/><path d="m109.705 2.54 49.734-6.204-3.74-10.368-49.206 5.961z" style="fill:#fff;fill-opacity:1;stroke:#000;stroke-width:.252767px;stroke-linecap:butt;stroke-linejoin:miter;stroke-opacity:1" transform="translate(77.899 302.723)"/></g><g style="display:inline"><path d="m-33.263-153.804 2.154 19.889-14.358 3.977.718 7.956 15.076-3.978 1.436 9.281-14.358 3.978 1.435 7.955 15.077-3.314 11.486 57.676 226.859-24.529 4.307-62.98 21.538-3.978v-7.292l-21.538 2.652-.717-6.63 22.973-3.314v-7.293l-22.256 3.315-.717-19.888z" style="mix-blend-mode:normal;fill:url(#a);fill-opacity:1;fill-rule:nonzero;stroke:#000;stroke-width:.275;stroke-linecap:butt;stroke-linejoin:miter;stroke-miterlimit:4;stroke-dasharray:none;stroke-opacity:1" transform="translate(77.899 302.723)"/></g><path d="m-6.943-138.476 9.317 43.053L80.23-107.29l-12.61-35.905ZM114.027-148.5l-.564 40.26 84.978-14.718.95-38.454z" style="fill:#fff;fill-opacity:1;stroke:#000;stroke-width:.264583px;stroke-linecap:butt;stroke-linejoin:miter;stroke-opacity:1" transform="translate(77.899 302.723)"/><path d="m-13.767-142.422 11.393 55.545 89.726-14.717-8.461-54.198zM97.453-157.118l11.737 55.049 95.423-16.141.9-48.853z" style="fill:#fff;fill-opacity:1;stroke:#000;stroke-width:.264583px;stroke-linecap:butt;stroke-linejoin:miter;stroke-opacity:1" transform="translate(77.899 302.723)"/><path d="m84.194-131.263-5.303-24.53-73.587 8.619 1.988 11.933 60.329-7.955 1.988 14.584zM102.757-133.915l-5.304-23.203 79.554-9.282.663 11.933-63.643 5.967 2.652 13.922z" style="fill:#000;fill-opacity:1;stroke:#000;stroke-width:.264583px;stroke-linecap:butt;stroke-linejoin:miter;stroke-opacity:1" transform="translate(77.899 302.723)"/><path d="m198.884-148.5 7.292-.663-.663-17.9-18.94 1.853.475 5.223 12.343-1.425zM205.088-133.402l-.475 15.192-21.363 4.747v-6.646l15.191-2.849.475-10.444zM129.13-104.443l-19.94 2.374-3.323-17.566h5.697l1.899 11.394 15.192-1.899zM84.504-118.685l2.848 17.09-19.939 3.324-.95-7.596 13.768-1.424-1.424-10.445zM12.818-90.2l-15.192 3.323-2.848-16.616H.949l1.425 8.07 9.495-.95zM-10.444-124.857l-3.323-17.565 11.838-1.454.386 5.4h-5.4l1.929 13.5z" style="fill:#000;stroke:#000;stroke-width:.264583px;stroke-linecap:butt;stroke-linejoin:miter;stroke-opacity:1" transform="translate(77.899 302.723)"/><path d="M-4.629-114.56s40.887-44.745 75.988-5.787c0 0-35.486 50.53-75.988 5.786z" style="fill:#fff;stroke:#000;stroke-width:5;stroke-linecap:butt;stroke-linejoin:miter;stroke-miterlimit:4;stroke-dasharray:none;stroke-opacity:1" transform="translate(77.899 302.723)"/><path d="M117.647-126.133s10.414-41.272 77.53-15.043c0 0-32.298 55.682-77.53 15.043z" style="fill:#fff;fill-opacity:1;stroke:#000;stroke-width:5;stroke-linecap:butt;stroke-linejoin:miter;stroke-miterlimit:4;stroke-dasharray:none;stroke-opacity:1" transform="translate(77.899 302.723)"/><g transform="translate(77.899 302.723)"><ellipse cx="33.544" cy="-115.348" rx="20.217" ry="17.699" style="opacity:.817919;fill:#fff;fill-opacity:1;stroke:#000;stroke-width:3;stroke-miterlimit:4;stroke-dasharray:none;stroke-opacity:1"/><ellipse cx="153.685" cy="-130.708" rx="20.217" ry="17.699" style="opacity:.817919;fill:none;fill-opacity:1;stroke:#000;stroke-width:3;stroke-miterlimit:4;stroke-dasharray:none;stroke-opacity:1"/><ellipse cx="33.19" cy="-115.204" rx="14.411" ry="14.137" style="opacity:.817919;fill:#000;fill-opacity:1;stroke:#000;stroke-width:3.25235;stroke-miterlimit:4;stroke-dasharray:none;stroke-opacity:1"/><ellipse cx="153.605" cy="-130.564" rx="14.411" ry="14.137" style="opacity:.817919;fill:#000;fill-opacity:1;stroke:#000;stroke-width:3.25235;stroke-miterlimit:4;stroke-dasharray:none;stroke-opacity:1"/></g></svg>